<?xml version="1.0" encoding="iso-8859-1"?>
<!-- Uploaded to: SVG Repo, www.svgrepo.com, Generator: SVG Repo Mixer Tools -->
<svg height="800px" width="800px" version="1.1" id="Layer_1" xmlns="http://www.w3.org/2000/svg" xmlns:xlink="http://www.w3.org/1999/xlink" 
	 viewBox="0 0 512 512" xml:space="preserve">
<path id="SVGCleanerId_0" style="fill:#47CEAC;" d="M512,256.006C512,397.402,397.394,512.004,256.004,512
	C114.606,512.004,0,397.402,0,256.006C-0.007,114.61,114.606,0,256.004,0C397.394,0,512,114.614,512,256.006z"/>
<g>
	<path id="SVGCleanerId_0_1_" style="fill:#47CEAC;" d="M512,256.006C512,397.402,397.394,512.004,256.004,512
		C114.606,512.004,0,397.402,0,256.006C-0.007,114.61,114.606,0,256.004,0C397.394,0,512,114.614,512,256.006z"/>
</g>
<path style="fill:#36BB9A;" d="M512,256.005c0-22.479-2.921-44.271-8.362-65.044c-0.402-0.515-110.521-110.665-111.093-111.093
	c-1.359-1.818-3.428-3.07-5.877-3.07h-97.89c-1.984,0-3.881,0.786-5.279,2.188L95.233,267.349C90.639,271.915,88,278.461,88,285.324
	c0,6.863,2.633,13.417,7.233,17.989c0,0,204.606,204.604,204.619,204.618l0.217,0.217C420.445,487.255,512,382.366,512,256.005z"/>
<g>
	<path style="fill:#F4F6F9;" d="M326.933,181.33c7.978,0,15.481-3.106,21.117-8.75c5.644-5.636,8.75-13.139,8.75-21.117
		s-3.106-15.481-8.75-21.117c-11.273-11.287-30.96-11.287-42.234,0c-5.644,5.636-8.75,13.139-8.75,21.117s3.106,15.481,8.75,21.117
		C311.453,178.223,318.956,181.33,326.933,181.33z M316.374,140.905c2.822-2.822,6.57-4.375,10.558-4.375s7.737,1.553,10.558,4.375
		c2.821,2.822,4.375,6.57,4.375,10.558c0,3.988-1.553,7.737-4.375,10.558c-5.644,5.644-15.473,5.644-21.117,0
		c-2.822-2.822-4.375-6.57-4.375-10.558C311.998,147.474,313.553,143.727,316.374,140.905z"/>
	<path style="fill:#F4F6F9;" d="M423.606,174.512l-29.473-86.967v-3.281c0-4.127-3.34-7.467-7.467-7.467h-97.89
		c-1.983,0-3.879,0.787-5.279,2.188L95.233,267.349C90.639,271.914,88,278.462,88,285.324c0,6.862,2.633,13.417,7.233,17.988
		l72.88,72.443c2.82,2.807,6.179,4.699,9.731,5.872c0.407,2.246,1.708,4.304,3.911,5.394l92.166,45.638
		c3.412,1.692,7.094,2.545,10.799,2.545c2.661,0,5.338-0.445,7.934-1.334c6.249-2.144,11.287-6.621,14.175-12.607l0.351-0.727
		l79.486,7.195c11.302,0,22.4-10.704,22.4-21.613V211.197c0-0.414-0.172-0.772-0.235-1.168l14.425-29.872
		C424.109,178.399,424.234,176.371,423.606,174.512z M105.762,292.724c-1.801-1.787-2.829-4.484-2.829-7.401
		c0-2.91,1.028-5.6,2.844-7.401L291.868,91.73H379.2v88.463L192.766,365.167c-3.85,3.806-10.303,3.799-14.124,0L105.762,292.724z
		 M287.806,419.745c-2.399,0.817-4.988,0.649-7.263-0.474l-81.311-40.262c1.435-0.925,2.8-1.996,4.055-3.247l188.636-187.155
		c1.414-1.401,2.209-3.311,2.209-5.301v-49.229l14.35,42.338L293.383,414.772C292.239,417.135,290.263,418.907,287.806,419.745z
		 M394.133,406.117c0,2.319-3.952,6.679-6.788,6.708l-73.227-6.657l80.015-165.701V406.117z"/>
</g>
</svg>