<?xml version="1.0" encoding="iso-8859-1"?>
<!-- Uploaded to: SVG Repo, www.svgrepo.com, Generator: SVG Repo Mixer Tools -->
<svg height="800px" width="800px" version="1.1" id="Layer_1" xmlns="http://www.w3.org/2000/svg" xmlns:xlink="http://www.w3.org/1999/xlink" 
	 viewBox="0 0 512 512" xml:space="preserve">
<polygon style="fill:#E04F5F;" points="0,256 0,410 386,410 512,256 386,102 0,102 "/>
<g>
	<circle style="fill:#FFFFFF;" cx="370.08" cy="256" r="28"/>
	<path style="fill:#FFFFFF;" d="M168.848,349.616v-21.888c-15.456-0.688-30.432-4.848-39.2-9.92l6.928-26.976
		c9.68,5.296,23.28,10.144,38.288,10.144c13.136,0,22.128-5.072,22.128-14.288c0-8.768-7.376-14.304-24.448-20.064
		c-24.672-8.304-41.504-19.824-41.504-42.192c0-20.288,14.304-36.192,38.976-41.04v-21.904h22.592v20.288
		c15.456,0.688,25.84,3.904,33.44,7.6l-6.688,26.064c-5.984-2.528-16.592-7.84-33.216-7.84c-14.976,0-19.824,6.464-19.824,12.912
		c0,7.6,8.08,12.448,27.68,19.824c27.424,9.68,38.512,22.368,38.512,43.12c0,20.528-14.528,38.032-41.04,42.656v23.504
		C191.472,349.616,168.848,349.616,168.848,349.616z"/>
</g>
</svg>